# Fish AR 3D mesh: bonito
mtllib bonito.mtl
o bonito
v -0.62 0 0
v -0.32 0.22 0.09
v -0.32 0.09 0.23
v -0.32 -0.09 0.23
v -0.32 -0.22 0.09
v -0.32 -0.22 -0.09
v -0.32 -0.09 -0.23
v -0.32 0.09 -0.23
v -0.32 0.22 -0.09
v 0.18 0.32 0
v 0.18 0 0.28
v 0.18 -0.32 0
v 0.18 0 -0.28
v 0.52 0.13 0.06
v 0.52 0 0.15
v 0.52 -0.13 0.06
v 0.52 0 -0.15
v 0.68 0 0
v 0.04 0.52 0
v 0.26 -0.46 0
v 0.05 0 0.44
v 0.05 0 -0.44
v -0.65 0.30 0
v -0.65 -0.30 0
f 1 2 3 4 5 6 7 8 9
f 2 10 11 3
f 3 11 12 4
f 4 12 13 5
f 5 13 14 6
f 6 14 15 7
f 7 15 16 8
f 8 16 17 9
f 9 17 18 1
f 10 19 11
f 12 20 13
f 11 21 15
f 12 22 16
f 1 23 24
