# Fish AR 3D mesh: caballa
mtllib caballa.mtl
o caballa
v -0.6250 0.0000 0.0000
v -0.6250 0.0000 0.0000
v -0.6250 0.0000 0.0000
v -0.6250 0.0000 0.0000
v -0.6250 0.0000 0.0000
v -0.6250 0.0000 0.0000
v -0.6250 0.0000 0.0000
v -0.6250 0.0000 0.0000
v -0.6250 0.0000 0.0000
v -0.6250 -0.0000 0.0000
v -0.4167 0.0000 0.0000
v -0.4167 0.0926 0.0670
v -0.4167 0.1760 0.0541
v -0.4167 0.2241 -0.0207
v -0.4167 0.1760 -0.0670
v -0.4167 0.0926 -0.0541
v -0.4167 0.0000 -0.0000
v -0.4167 -0.0926 -0.0670
v -0.4167 -0.1760 -0.0541
v -0.4167 -0.2241 0.0207
v -0.4167 -0.1760 0.0670
v -0.4167 -0.0926 0.0541
v -0.2083 0.0000 0.0000
v -0.2083 0.1386 0.1003
v -0.2083 0.2639 0.0810
v -0.2083 0.3361 -0.0311
v -0.2083 0.2639 -0.1003
v -0.2083 0.1386 -0.0810
v -0.2083 0.0000 -0.0000
v -0.2083 -0.1386 -0.1003
v -0.2083 -0.2639 -0.0810
v -0.2083 -0.3361 0.0311
v -0.2083 -0.2639 0.1003
v -0.2083 -0.1386 0.0810
v 0.0000 0.0000 0.0000
v 0.0000 0.1768 0.1280
v 0.0000 0.3367 0.1034
v 0.0000 0.4288 -0.0396
v 0.0000 0.3367 -0.1280
v 0.0000 0.1768 -0.1034
v 0.0000 0.0000 -0.0000
v 0.0000 -0.1768 -0.1280
v 0.0000 -0.3367 -0.1034
v 0.0000 -0.4288 0.0396
v 0.0000 -0.3367 0.1280
v 0.0000 -0.1768 0.1034
v 0.2083 0.0000 0.0000
v 0.2083 0.1386 0.1003
v 0.2083 0.2639 0.0810
v 0.2083 0.3361 -0.0311
v 0.2083 0.2639 -0.1003
v 0.2083 0.1386 -0.0810
v 0.2083 0.0000 -0.0000
v 0.2083 -0.1386 -0.1003
v 0.2083 -0.2639 -0.0810
v 0.2083 -0.3361 0.0311
v 0.2083 -0.2639 0.1003
v 0.2083 -0.1386 0.0810
v 0.4167 0.0000 0.0000
v 0.4167 0.0926 0.0670
v 0.4167 0.1760 0.0541
v 0.4167 0.2241 -0.0207
v 0.4167 0.1760 -0.0670
v 0.4167 0.0926 -0.0541
v 0.4167 0.0000 -0.0000
v 0.4167 -0.0926 -0.0670
v 0.4167 -0.1760 -0.0541
v 0.4167 -0.2241 0.0207
v 0.4167 -0.1760 0.0670
v 0.4167 -0.0926 0.0541
v 0.6250 0.0000 0.0000
v 0.6250 0.0000 0.0000
v 0.6250 0.0000 0.0000
v 0.6250 0.0000 0.0000
v 0.6250 0.0000 0.0000
v 0.6250 0.0000 0.0000
v 0.6250 0.0000 0.0000
v 0.6250 0.0000 0.0000
v 0.6250 0.0000 0.0000
v 0.6250 -0.0000 0.0000
v 0.0000 0.2800 0.0000
v 0.3125 0.0420 0.0000
v 0.4375 0.0000 0.0000
v 0.0000 -0.2800 0.0000
v 0.3125 -0.0420 0.0000
v 0.0000 0.0000 0.3360
v 0.3125 0.0000 0.0840
v 0.0000 0.0000 0.0000
f 1 2 12 11
f 2 3 13 12
f 3 4 14 13
f 4 5 15 14
f 5 6 16 15
f 6 7 17 16
f 7 8 18 17
f 8 9 19 18
f 9 10 20 19
f 10 1 11 20
f 11 12 24 23
f 12 13 25 24
f 13 14 26 25
f 14 15 27 26
f 15 16 28 27
f 16 17 29 28
f 17 18 30 29
f 18 19 31 30
f 19 20 32 31
f 20 21 33 32
f 21 22 34 33
f 22 11 23 34
f 23 24 36 35
f 24 25 37 36
f 25 26 38 37
f 26 27 39 38
f 27 28 40 39
f 28 29 41 40
f 29 30 42 41
f 30 31 43 42
f 31 32 44 43
f 32 33 45 44
f 33 34 46 45
f 34 23 35 46
f 35 36 48 47
f 36 37 49 48
f 37 38 50 49
f 38 39 51 50
f 39 40 52 51
f 40 41 53 52
f 41 42 54 53
f 42 43 55 54
f 43 44 56 55
f 44 45 57 56
f 45 46 58 57
f 46 35 47 58
f 47 48 60 59
f 48 49 61 60
f 49 50 62 61
f 50 51 63 62
f 51 52 64 63
f 52 53 65 64
f 53 54 66 65
f 54 55 67 66
f 55 56 68 67
f 56 57 69 68
f 57 58 70 69
f 58 47 59 70
f 59 60 72 71
f 60 61 73 72
f 61 62 74 73
f 62 63 75 74
f 63 64 76 75
f 64 65 77 76
f 65 66 78 77
f 66 67 79 78
f 67 68 80 79
f 68 69 81 80
f 69 70 82 81
f 70 59 71 82
f 71 72 84 83
f 72 73 85 84
f 73 74 86 85
f 74 75 87 86
f 75 76 88 87
f 76 77 89 88
f 77 78 90 89
f 78 79 91 90
f 79 80 92 91
f 80 81 93 92
f 81 82 94 93
f 82 71 83 94
f 83 84 85
f 86 87 85
f 88 89 4
