# Fish AR 3D mesh: cabrilla
mtllib cabrilla.mtl
o cabrilla
v -0.54 0 0
v -0.26 0.23 0.12
v -0.26 0.11 0.25
v -0.26 -0.11 0.25
v -0.26 -0.23 0.12
v -0.26 -0.23 -0.12
v -0.26 -0.11 -0.25
v -0.26 0.11 -0.25
v -0.26 0.23 -0.12
v 0.18 0.35 0
v 0.18 0 0.34
v 0.18 -0.35 0
v 0.18 0 -0.34
v 0.47 0.15 0.07
v 0.47 0 0.18
v 0.47 -0.15 0.07
v 0.47 0 -0.18
v 0.61 0 0
v 0.03 0.55 0
v 0.30 -0.50 0
v 0.04 0 0.48
v 0.04 0 -0.48
v -0.56 0.31 0
v -0.56 -0.31 0
f 1 2 3 4 5 6 7 8 9
f 2 10 11 3
f 3 11 12 4
f 4 12 13 5
f 5 13 14 6
f 6 14 15 7
f 7 15 16 8
f 8 16 17 9
f 9 17 18 1
f 10 19 11
f 12 20 13
f 11 21 15
f 12 22 16
f 1 23 24
