# Fish AR 3D mesh: camotillo
mtllib camotillo.mtl
o camotillo
v -0.45 0 0
v -0.22 0.17 0.08
v -0.22 0.08 0.19
v -0.22 -0.08 0.19
v -0.22 -0.17 0.08
v -0.22 -0.17 -0.08
v -0.22 -0.08 -0.19
v -0.22 0.08 -0.19
v -0.22 0.17 -0.08
v 0.14 0.27 0
v 0.14 0 0.24
v 0.14 -0.27 0
v 0.14 0 -0.24
v 0.40 0.10 0.05
v 0.40 0 0.12
v 0.40 -0.10 0.05
v 0.40 0 -0.12
v 0.52 0 0
v 0.02 0.40 0
v 0.22 -0.36 0
v 0.03 0 0.34
v 0.03 0 -0.34
v -0.47 0.25 0
v -0.47 -0.25 0
f 1 2 3 4 5 6 7 8 9
f 2 10 11 3
f 3 11 12 4
f 4 12 13 5
f 5 13 14 6
f 6 14 15 7
f 7 15 16 8
f 8 16 17 9
f 9 17 18 1
f 10 19 11
f 12 20 13
f 11 21 15
f 12 22 16
f 1 23 24
