# Fish AR 3D mesh: jurel
mtllib jurel.mtl
o jurel
v -0.64 0 0
v -0.30 0.18 0.08
v -0.30 0.08 0.21
v -0.30 -0.08 0.21
v -0.30 -0.18 0.08
v -0.30 -0.18 -0.08
v -0.30 -0.08 -0.21
v -0.30 0.08 -0.21
v -0.30 0.18 -0.08
v 0.20 0.28 0
v 0.20 0 0.25
v 0.20 -0.28 0
v 0.20 0 -0.25
v 0.52 0.11 0.05
v 0.52 0 0.13
v 0.52 -0.11 0.05
v 0.52 0 -0.13
v 0.70 0 0
v 0.02 0.46 0
v 0.27 -0.43 0
v 0.05 0 0.40
v 0.05 0 -0.40
v -0.66 0.28 0
v -0.66 -0.28 0
f 1 2 3 4 5 6 7 8 9
f 2 10 11 3
f 3 11 12 4
f 4 12 13 5
f 5 13 14 6
f 6 14 15 7
f 7 15 16 8
f 8 16 17 9
f 9 17 18 1
f 10 19 11
f 12 20 13
f 11 21 15
f 12 22 16
f 1 23 24
