# Fish AR 3D mesh: super_pez
mtllib super_pez.mtl
o super_pez
v -0.68 0 0
v -0.34 0.30 0.14
v -0.34 0.15 0.32
v -0.34 -0.15 0.32
v -0.34 -0.30 0.14
v -0.34 -0.30 -0.14
v -0.34 -0.15 -0.32
v -0.34 0.15 -0.32
v -0.34 0.30 -0.14
v 0.20 0.40 0
v 0.20 0 0.36
v 0.20 -0.40 0
v 0.20 0 -0.36
v 0.56 0.18 0.10
v 0.56 0 0.20
v 0.56 -0.18 0.10
v 0.56 0 -0.20
v 0.74 0 0
v 0.05 0.65 0
v 0.28 -0.56 0
v 0.06 0 0.56
v 0.06 0 -0.56
v -0.72 0.38 0
v -0.72 -0.38 0
f 1 2 3 4 5 6 7 8 9
f 2 10 11 3
f 3 11 12 4
f 4 12 13 5
f 5 13 14 6
f 6 14 15 7
f 7 15 16 8
f 8 16 17 9
f 9 17 18 1
f 10 19 11
f 12 20 13
f 11 21 15
f 12 22 16
f 1 23 24
