# Fish AR 3D mesh: tortuga_nuro
mtllib tortuga_nuro.mtl
o tortuga_nuro
v -0.40 0 0
v -0.20 0.35 0.12
v -0.20 0.15 0.40
v -0.20 -0.15 0.40
v -0.20 -0.35 0.12
v -0.20 -0.35 -0.12
v -0.20 -0.15 -0.40
v -0.20 0.15 -0.40
v -0.20 0.35 -0.12
v 0.15 0.42 0
v 0.15 0 0.46
v 0.15 -0.42 0
v 0.15 0 -0.46
v 0.42 0.20 0.12
v 0.42 0 0.26
v 0.42 -0.20 0.12
v 0.42 0 -0.26
v 0.55 0 0
v 0.05 0.50 0
v 0.20 -0.48 0
v 0.05 0 0.60
v 0.05 0 -0.60
v -0.48 0.25 0
v -0.48 -0.25 0
f 1 2 3 4 5 6 7 8 9
f 2 10 11 3
f 3 11 12 4
f 4 12 13 5
f 5 13 14 6
f 6 14 15 7
f 7 15 16 8
f 8 16 17 9
f 9 17 18 1
f 10 19 11
f 12 20 13
f 11 21 15
f 12 22 16
f 1 23 24
